<svg id="date" xmlns="http://www.w3.org/2000/svg" viewBox="0 0 53.16 53.55"><defs><style>.cls-1{fill:#fff;}</style></defs><g id="Layer_5" data-name="Layer 5"><path class="cls-1" d="M137.34,9.14v2.31a3.09,3.09,0,1,1-6.18,0V9h-2.77v2.46a3.09,3.09,0,1,1-6.18,0V9h-2.94v2.46a3.09,3.09,0,1,1-6.17,0V9h-2.94v2.46a3.09,3.09,0,0,1-6.18,0V9h-3.4v2.46a3.09,3.09,0,1,1-6.18,0V9.14a6.42,6.42,0,0,0-5.11,6.29v36.2a6.43,6.43,0,0,0,6.43,6.43H136a6.43,6.43,0,0,0,6.43-6.43V15.43A6.42,6.42,0,0,0,137.34,9.14ZM101.68,52.88H94.25V45.45h7.43Zm0-11.44H94.25V34h7.43Zm0-12.57H94.25V21.44h7.43Zm4.61-7.43h7.43v7.43h-7.43Zm7.43,31.44h-7.43V45.45h7.43Zm12,0h-7.43V45.45h7.43Zm0-11.44h-7.43V34h7.43Zm0-12.57h-7.43V21.44h7.43Zm12,24h-7.43V45.45h7.43Zm0-11.44h-7.43V34h7.43Zm0-12.57h-7.43V21.44h7.43Z" transform="translate(-89.29 -4.51)"/><rect class="cls-1" x="6.35" width="3.72" height="8.68" rx="1.55"/><rect class="cls-1" x="15.95" width="3.72" height="8.68" rx="1.55"/><rect class="cls-1" x="25.01" width="3.72" height="8.68" rx="1.55"/><rect class="cls-1" x="34.3" width="3.72" height="8.68" rx="1.55"/><rect class="cls-1" x="43.17" width="3.72" height="8.68" rx="1.55"/></g></svg>