<svg id="flight" xmlns="http://www.w3.org/2000/svg" viewBox="0 0 60.32 56.64"><defs><style>.cls-1{fill:#fff;}</style></defs><path id="outline" class="cls-1" d="M61.41,5.3l-.12-.15a4.83,4.83,0,0,0-3.58-1.47,7.24,7.24,0,0,0-1.2.11l-.44.09a17.88,17.88,0,0,0-7.25,3.26l-1.27,1c-2.56,2-5.21,4-7.75,6.16a2,2,0,0,1-.92.5l-.21,0a2.69,2.69,0,0,1-.89-.19C30.07,12,22.47,9.39,13.44,6.37a9.46,9.46,0,0,0-3.08-.55,7.47,7.47,0,0,0-1.26.11A7.69,7.69,0,0,0,4,9.57a4.74,4.74,0,0,0-.88,3.55A4.54,4.54,0,0,0,5.32,16c1.25.79,2.53,1.56,3.77,2.31l.16.09c1,.61,2.16,1.3,3.26,2,.88.55,1.78,1.08,2.65,1.61A52.15,52.15,0,0,1,23,27.3l-.28.25c-2.92,2.57-5.93,5.23-8.93,7.84L13,35h0a15.32,15.32,0,0,0-2.66-1.14,10.41,10.41,0,0,0-3-.48,7.06,7.06,0,0,0-1.24.11l-.24,0A4.85,4.85,0,0,0,2.09,36.6a5,5,0,0,0,1.1,4.91C4.56,43.16,11,51.38,12.32,53.1a5.05,5.05,0,0,0,4.5,2.24,4.87,4.87,0,0,0,3.87-2.94,2,2,0,0,0,.1-.21A7.1,7.1,0,0,0,21.18,51a10.58,10.58,0,0,0,.26-3A18,18,0,0,0,21,45.11v0q-.11-.42-.18-.81C24,42,27.32,39.69,30.51,37.46l.31-.21a53,53,0,0,1,3.32,8.86c.3,1,.61,2,.94,3,.4,1.23.8,2.51,1.15,3.63l.06.18c.43,1.38.87,2.81,1.34,4.21A4.56,4.56,0,0,0,39.87,60a4.76,4.76,0,0,0,3.66,0,7.67,7.67,0,0,0,4.76-4.13,8.31,8.31,0,0,0,.4-1.19,9.67,9.67,0,0,0,.2-3.13C48.09,42,47.4,34,46.64,25.89a2.93,2.93,0,0,1,0-.92l.06-.2a2.13,2.13,0,0,1,.71-.77c2.66-2,5.29-4.05,7.83-6.07l1.25-1a17.83,17.83,0,0,0,4.9-6.26l.19-.41A7,7,0,0,0,62,9.12,4.92,4.92,0,0,0,61.41,5.3ZM59,8.37a4.63,4.63,0,0,1-.34.9,15,15,0,0,1-4,5.2l-1.24,1c-2.52,2-5.13,4.08-7.76,6a4.75,4.75,0,0,0-1.95,2.74,5.93,5.93,0,0,0-.11,2c.81,8.64,1.55,17.39,2.24,25.57a6.5,6.5,0,0,1-.12,2.11A4.38,4.38,0,0,1,42.47,57a1.85,1.85,0,0,1-1.23.14,1.88,1.88,0,0,1-.63-1c-.48-1.43-.94-2.9-1.38-4.32-.38-1.21-.77-2.45-1.17-3.68-.32-1-.62-2-.92-2.9A47.67,47.67,0,0,0,32.81,34.4c-.09-.16-.19-.31-.29-.48l-.19-.31-.53-.86L29,34.69c-3.54,2.46-7.2,5-10.76,7.53a1.69,1.69,0,0,0-.63,1,2.75,2.75,0,0,0-.05.94c.09.55.22,1.09.34,1.61a14.82,14.82,0,0,1,.4,2.35,7.52,7.52,0,0,1-.17,2.13,4,4,0,0,1-.27.78,1.79,1.79,0,0,1-1.34,1.17,2,2,0,0,1-1.68-1C13.63,49.6,6.9,41.06,5.61,39.51a2,2,0,0,1-.56-1.87,1.8,1.8,0,0,1,1.46-1,4.07,4.07,0,0,1,.82-.08,7.37,7.37,0,0,1,2.11.35,13.7,13.7,0,0,1,2.19.95c.47.24,1,.49,1.48.7a2.29,2.29,0,0,0,.92.18,1.72,1.72,0,0,0,1.14-.37c3.29-2.86,6.63-5.81,9.87-8.67l2.55-2.25-.72-.72-.25-.26-.39-.4a48.08,48.08,0,0,0-9.46-6.77c-.86-.51-1.75-1-2.6-1.58l-3.3-2C9.6,14.92,8.28,14.12,7,13.31c-.35-.22-.78-.55-.85-.85a1.91,1.91,0,0,1,.43-1.17A4.38,4.38,0,0,1,10.36,9a6.66,6.66,0,0,1,2.08.38c7.78,2.61,16.1,5.42,24.31,8.25a5.92,5.92,0,0,0,1.92.36,4.78,4.78,0,0,0,3.14-1.25c2.5-2.09,5.14-4.13,7.69-6.11l1.25-1a14.7,14.7,0,0,1,6-2.69,4.4,4.4,0,0,1,1-.12,1.74,1.74,0,0,1,1.18.38h0A1.71,1.71,0,0,1,59,8.37Z" transform="translate(-1.84 -3.68)"/></svg>