<svg id="pswt" xmlns="http://www.w3.org/2000/svg" viewBox="0 0 60.63 34.25"><defs><style>.cls-1{fill:#fff;}</style></defs><g id="Layer_12" data-name="Layer 12"><path class="cls-1" d="M39.49,21.5l-8.12,4.94-5.8-5.19,2.9-1.43a8.55,8.55,0,0,1,7.65.05Z" transform="translate(-2.31 -17.75)"/><path class="cls-1" d="M62.73,23.24v0a2,2,0,0,1-.91,2.65L50.88,31.7l-.32,1.57L48.28,44.45a8.53,8.53,0,0,1-4.59,6.12L40.79,52l-1-13-.1-1.34L17.51,49.37c-1.71,1-4.15-1-4.15-1l-11-10.15a25.28,25.28,0,0,1,3.41-2.27c1-.5,4.37-1.76,7.09.57l2,1.49L32.32,27.3l8.48-5.16L45,19.57C52.11,16.07,60,17.81,62.73,23.24Z" transform="translate(-2.31 -17.75)"/></g></svg>