<svg id="hotel" xmlns="http://www.w3.org/2000/svg" viewBox="0 0 41.55 58.73"><defs><style>.cls-1{fill:#fff;}.cls-2{fill:none;stroke:#fff;stroke-miterlimit:10;}</style></defs><path class="cls-1" d="M26.37,117H19.79v-7.93h6.58Zm-5.58-1h4.58v-5.93H20.79Z" transform="translate(-11.37 -84.45)"/><path class="cls-1" d="M35.43,117H28.86v-7.93h6.57Zm-5.57-1h4.57v-5.93H29.86Z" transform="translate(-11.37 -84.45)"/><path class="cls-1" d="M44.49,117H37.92v-7.93h6.57Zm-5.57-1h4.57v-5.93H38.92Z" transform="translate(-11.37 -84.45)"/><path class="cls-1" d="M26.37,127.74H19.79v-7.93h6.58Zm-5.58-1h4.58v-5.93H20.79Z" transform="translate(-11.37 -84.45)"/><path class="cls-1" d="M35.43,127.74H28.86v-7.93h6.57Zm-5.57-1h4.57v-5.93H29.86Z" transform="translate(-11.37 -84.45)"/><path class="cls-1" d="M44.49,127.74H37.92v-7.93h6.57Zm-5.57-1h4.57v-5.93H38.92Z" transform="translate(-11.37 -84.45)"/><polygon class="cls-2" points="11.9 6.98 13.89 8.03 13.51 5.81 15.12 4.24 12.89 3.92 11.9 1.91 10.9 3.92 8.68 4.24 10.29 5.81 9.91 8.03 11.9 6.98"/><polygon class="cls-2" points="20.78 6.21 22.77 7.25 22.39 5.04 24 3.47 21.77 3.15 20.78 1.13 19.78 3.15 17.56 3.47 19.17 5.04 18.79 7.25 20.78 6.21"/><polygon class="cls-2" points="29.66 6.98 31.64 8.03 31.27 5.81 32.88 4.24 30.65 3.92 29.66 1.91 28.66 3.92 26.44 4.24 28.05 5.81 27.67 8.03 29.66 6.98"/><g id="Layer_9" data-name="Layer 9"><path class="cls-1" d="M51.82,141h-.93V104.6h0v-1.44a4.1,4.1,0,0,0-3-4,4.12,4.12,0,0,0-4.09-3.65H20.47a4.11,4.11,0,0,0-4.08,3.65,4.1,4.1,0,0,0-3,4v1.44h0V141h-.94a1.1,1.1,0,0,0,0,2.2H51.82a1.1,1.1,0,1,0,0-2.2ZM29.7,97.67h1v1.81h1.86V97.67h1v4.63h-1v-2H30.7v2h-1ZM15.4,105H48.89v36H15.4Z" transform="translate(-11.37 -84.45)"/></g></svg>