<svg id="passenger" xmlns="http://www.w3.org/2000/svg" viewBox="0 0 53.49 50.04"><defs><style>.cls-1{fill:#fff;}</style></defs><path class="cls-1" d="M3.07,18H24.22a3.07,3.07,0,0,1,3.07,3.07V49.44a.6.6,0,0,1-.6.6H.6a.6.6,0,0,1-.6-.6V21.1A3.07,3.07,0,0,1,3.07,18Z"/><circle class="cls-1" cx="13.65" cy="8.42" r="8.42"/><path class="cls-1" d="M34.49,24.15H50.42a3.07,3.07,0,0,1,3.07,3.07V49.44a.6.6,0,0,1-.6.6H32a.6.6,0,0,1-.6-.6V27.22A3.07,3.07,0,0,1,34.49,24.15Z"/><circle class="cls-1" cx="42.45" cy="16.39" r="6.81"/></svg>