<svg id="restaurant" xmlns="http://www.w3.org/2000/svg" viewBox="0 0 47.51 54.54"><defs><style>.cls-1{fill:#fff;}</style></defs><path class="cls-1" d="M139.83,93.83l-9.11-6.54a1,1,0,0,0-.54-.17,1.25,1.25,0,0,0-.85.42c-.13.12-.28.29-.55.58s-.83,1-1.42,1.67c-1,1.16-2.26,2.72-3.81,4.64a13.75,13.75,0,0,0-3,7.47,13.4,13.4,0,0,0,.34,4.25l-.3.44-4.34,5.78-4.76-6.19a8.43,8.43,0,0,0,1-3.9A12.06,12.06,0,0,0,110.09,95a23.25,23.25,0,0,0-7.25-6.2,11.64,11.64,0,0,0-5.41-1.67,4.44,4.44,0,0,0-2.71.81c-1.81,1.31-2.42,4.15-1.7,8a23,23,0,0,0,3.63,8.82,12,12,0,0,0,6.21,4.57,9.17,9.17,0,0,0,2.55.38,7.31,7.31,0,0,0,1.33-.11l5.54,8.07L98.46,136a2.63,2.63,0,0,0-.34,3,5,5,0,0,0,4.2,2.7,2.71,2.71,0,0,0,2.33-1.21v0l11.52-17.13,11.74,17a2.67,2.67,0,0,0,2.36,1.31,5.14,5.14,0,0,0,4.21-2.78,2.81,2.81,0,0,0-.25-3.1l-14.11-18.34,4.74-7.06.44-.63.25-.41a12.72,12.72,0,0,0,3.65-1,13.7,13.7,0,0,0,6-5.2c1.34-2.13,2.45-3.88,3.26-5.21.53-.87.93-1.54,1.22-2C140.16,95.06,140.57,94.35,139.83,93.83Zm-14,14.07a8.29,8.29,0,0,1-1.35.08l-.53.81h0l-.67,1L119.06,116l-1.79-2.32,4-5.35.58-.76v0l0,0,.61-.72a6.91,6.91,0,0,1-.46-1.47,11.9,11.9,0,0,1-.19-3.32,12.29,12.29,0,0,1,2.71-6.72c3.88-4.79,5.16-6.25,5.58-6.69l.89.65a.52.52,0,0,0-.1.11l-6.78,9.43a.6.6,0,0,0,.13.83l.38.27a.6.6,0,0,0,.82-.14l6.78-9.43a.91.91,0,0,0,.07-.14l1.44,1-.09.1-6.8,9.48a.56.56,0,0,0,.12.78l.42.3a.57.57,0,0,0,.79-.13l6.81-9.48.06-.11,1.43,1a.46.46,0,0,0-.07.07l-6.84,9.53a.54.54,0,0,0,.12.74l.47.34a.54.54,0,0,0,.74-.12l6.84-9.53,0-.08.87.62c-.28.55-1.27,2.26-4.69,7.65a12.28,12.28,0,0,1-5.41,4.67A11.3,11.3,0,0,1,125.81,107.9Zm3.51,31.51,0-.06-12.4-18-.7-1-1.84-2.69-.69-1-5.2-7.55-.32-.48-.24-.33v0a0,0,0,0,1,0,0,5,5,0,0,1-.3-.48l0,0a5.09,5.09,0,0,1-.92.27h0l-.15,0h0c-2.83.47-6.25-1.12-8.52-4.24a21.86,21.86,0,0,1-3.37-8.21c-.59-3.19-.19-5.56,1.1-6.5s3.67-.58,6.52,1a22,22,0,0,1,6.75,5.76c2.3,3.17,2.73,7,1.31,9.55h0a.37.37,0,0,1-.07.12,4.94,4.94,0,0,1-.6.84l0,0,.26.31.39.47.36.47,5,6.52.73.94,1.84,2.39.74,1,14.08,18.31C133.63,137.79,130,140.33,129.32,139.41ZM99.75,137a.1.1,0,0,1,0-.05l13.48-17.9,1.9,2.76-11.89,17.68C102.57,140.48,99.11,137.91,99.75,137Z" transform="translate(-92.73 -87.09)"/></svg>