<svg id="to" xmlns="http://www.w3.org/2000/svg" viewBox="0 0 60.78 34.31"><defs><style>.cls-1{fill:#fff;}</style></defs><g id="Layer_11" data-name="Layer 11"><path class="cls-1" d="M125.94,107.75l-9.47.82-2.89-7.22h3.23a8.55,8.55,0,0,1,6.83,3.44Z" transform="translate(-85.22 -101.35)"/><path class="cls-1" d="M146,119.62v0a2,2,0,0,1-2,2l-12.38.33-1,1.26-7,9a8.53,8.53,0,0,1-6.83,3.44h-3.23l4.84-12.12.51-1.25L93.88,123c-2,.17-3.26-2.76-3.26-2.76l-5.4-14a24.35,24.35,0,0,1,4.07-.51c1.13,0,4.69.35,6.1,3.65l1.09,2.21L117,109.77l9.89-.86,4.94-.43C139.66,108.48,146,113.56,146,119.62Z" transform="translate(-85.22 -101.35)"/><circle class="cls-1" cx="47.31" cy="23.88" r="1.72"/></g></svg>