<svg id="train" xmlns="http://www.w3.org/2000/svg" viewBox="0 0 52.32 62.06"><defs><style>.cls-1{fill:#fff;}</style></defs><path class="cls-1" d="M138,6.4a14.31,14.31,0,0,0-9.83-4.17A59.1,59.1,0,0,0,116,1h-.44A58.06,58.06,0,0,0,104,2.22,14.27,14.27,0,0,0,89.84,16.45V48.81A14.24,14.24,0,0,0,104.07,63h23.86a14.24,14.24,0,0,0,14.23-14.22V16.45A14.09,14.09,0,0,0,138,6.4Zm-10,53.42H104.07a11,11,0,0,1-11-11V16.45a11,11,0,0,1,11-11h.22l.11,0a56.14,56.14,0,0,1,11.19-1.22H116A55.87,55.87,0,0,1,127.6,5.4l.11,0h.22a11.4,11.4,0,0,1,7.78,3.24,11,11,0,0,1,3.23,7.78V48.81A11,11,0,0,1,127.93,59.82Z" transform="translate(-89.84 -0.97)"/><path class="cls-1" d="M107,13.69h18a3.1,3.1,0,0,0,0-6.19H107a3.1,3.1,0,0,0,0,6.19Zm0-4.23h18a1.14,1.14,0,0,1,0,2.27H107a1.14,1.14,0,0,1,0-2.27Z" transform="translate(-89.84 -0.97)"/><path class="cls-1" d="M129.57,16.42H102.43A5.62,5.62,0,0,0,96.82,22v8.38a5.61,5.61,0,0,0,5.61,5.6h27.14a5.61,5.61,0,0,0,5.61-5.6V22A5.62,5.62,0,0,0,129.57,16.42Zm2.85,14a2.85,2.85,0,0,1-2.85,2.84H102.43a2.85,2.85,0,0,1-2.85-2.84V22a2.86,2.86,0,0,1,2.85-2.85h27.14A2.86,2.86,0,0,1,132.42,22Z" transform="translate(-89.84 -0.97)"/><path class="cls-1" d="M102.19,41a5.34,5.34,0,1,0,5.33,5.34A5.34,5.34,0,0,0,102.19,41Zm0,8.33a3,3,0,1,1,3-3A3,3,0,0,1,102.19,49.3Z" transform="translate(-89.84 -0.97)"/><path class="cls-1" d="M129.64,41A5.34,5.34,0,1,0,135,46.31,5.34,5.34,0,0,0,129.64,41Zm0,8.33a3,3,0,1,1,3-3A3,3,0,0,1,129.64,49.3Z" transform="translate(-89.84 -0.97)"/><path class="cls-1" d="M120.09,40.18h-8.18a.74.74,0,0,0,0,1.48h8.18a.74.74,0,0,0,0-1.48Z" transform="translate(-89.84 -0.97)"/><path class="cls-1" d="M120.09,42.87h-8.18a.74.74,0,1,0,0,1.48h8.18a.74.74,0,0,0,0-1.48Z" transform="translate(-89.84 -0.97)"/><path class="cls-1" d="M120.09,45.57h-8.18a.74.74,0,0,0,0,1.48h8.18a.74.74,0,0,0,0-1.48Z" transform="translate(-89.84 -0.97)"/></svg>